<?xml version="1.0" encoding="utf-8"?>
<!-- Generator: Adobe Illustrator 15.0.0, SVG Export Plug-In . SVG Version: 6.00 Build 0)  -->
<!DOCTYPE svg PUBLIC "-//W3C//DTD SVG 1.1//EN" "http://www.w3.org/Graphics/SVG/1.1/DTD/svg11.dtd">
<svg version="1.1" id="Layer_1" xmlns="http://www.w3.org/2000/svg" xmlns:xlink="http://www.w3.org/1999/xlink" x="0px" y="0px"
	 width="51.661px" height="132.021px" viewBox="0 0 51.661 132.021" enable-background="new 0 0 51.661 132.021"
	 xml:space="preserve">
<g>
	<g>
		<g>
			<g>
				<path fill="#E58890" d="M49.657,59.65c1.715,1.953,1.664,4.6-0.113,5.913c-1.776,1.313-4.607,0.796-6.32-1.155
					c-1.716-1.95-1.665-4.597,0.112-5.911C45.112,57.184,47.943,57.701,49.657,59.65"/>
				<path fill="#5B0D0D" d="M47.223,67.04c-1.683,0-3.388-0.799-4.562-2.137c-1.05-1.193-1.566-2.689-1.415-4.103
					c0.126-1.184,0.71-2.216,1.645-2.906c0.773-0.571,1.729-0.874,2.768-0.874c1.683,0,3.388,0.798,4.563,2.135
					c1.051,1.196,1.565,2.693,1.414,4.107c-0.127,1.183-0.711,2.214-1.646,2.904C49.218,66.737,48.261,67.04,47.223,67.04z
					 M45.657,58.521c-0.714,0-1.363,0.2-1.875,0.58c-0.602,0.444-0.964,1.088-1.046,1.859c-0.106,0.997,0.276,2.073,1.051,2.953
					c0.895,1.019,2.179,1.627,3.436,1.627c0.715,0,1.363-0.201,1.875-0.58c0.602-0.443,0.963-1.086,1.046-1.857
					c0.106-0.997-0.275-2.075-1.05-2.957C48.199,59.128,46.915,58.521,45.657,58.521z"/>
			</g>
			<g>
				<g>
					<path fill="#D8414C" d="M27.007,35.793l2.714,12.594l0.003-0.001c0.199,0.645,0.548,1.284,1.054,1.858l12.446,14.164
						l6.434-4.758L37.956,46.333l-3.697-11.928L27.007,35.793z"/>
				</g>
				<g>
					<path fill="#5B0D0D" d="M33.775,35.126l3.589,11.583l11.309,12.87l-5.317,3.932L31.283,49.772
						c-0.429-0.487-0.75-1.054-0.929-1.634l-3.348-12.346l-1.715-1.174l3.793,13.994l0.18,0.652l0.059-0.022
						c0.235,0.526,0.557,1.027,0.948,1.473l12.82,14.59l7.55-5.581L38.547,45.959l-3.804-12.272L33.775,35.126z"/>
				</g>
			</g>
		</g>
		<g>
			<path fill="#AC1E23" d="M30.341,75.989l-6.74-3.044l-9.219,51.064c-0.842,2.594,0.111,5.521,2.131,6.54s4.34-0.255,5.18-2.848
				l15.387-48.67L30.341,75.989z"/>
			<path fill="#5B0D0D" d="M17.956,131.65L17.956,131.65c-0.614,0-1.214-0.145-1.781-0.431c-2.358-1.189-3.46-4.429-2.522-7.392
				l9.381-51.962l14.962,6.757l-15.588,49.306C21.675,130.191,19.928,131.65,17.956,131.65z M24.168,74.024l-9.073,50.217
				c-0.73,2.253,0.057,4.782,1.756,5.639c0.355,0.18,0.728,0.271,1.105,0.271c1.289,0,2.504-1.076,3.022-2.68l15.185-48.029
				L24.168,74.024z"/>
		</g>
		<g>
			<path fill="#AC1E23" d="M44.024,124.605l-5.887-49.821v-7.248H23.683v8.128c0,0.911,0.12,1.785,0.336,2.603l0.002,0.003
				c0.112,0.429,0.253,0.841,0.417,1.233l12.089,48.335c0.698,2.641,2.945,4.058,5.015,3.165
				C43.611,130.11,44.723,127.245,44.024,124.605"/>
			<path fill="#5B0D0D" d="M40.274,132.021C40.273,132.021,40.273,132.021,40.274,132.021c-2.045-0.001-3.842-1.604-4.473-3.991
				L23.724,79.738c-0.154-0.375-0.287-0.764-0.396-1.155l-0.035-0.125c-0.239-0.906-0.36-1.847-0.36-2.794v-8.878h15.955v7.998
				l5.876,49.683c0.759,2.966-0.546,6.199-2.926,7.225C41.333,131.909,40.807,132.021,40.274,132.021z M24.721,77.985l0.025,0.094
				c0.101,0.386,0.229,0.768,0.384,1.135l0.035,0.107l12.089,48.335c0.452,1.709,1.667,2.863,3.02,2.864h0.001
				c0.326,0,0.653-0.069,0.97-0.206c1.739-0.75,2.661-3.226,2.056-5.518l-0.021-0.104l-5.887-49.821l-0.004-6.586H24.433v7.378
				C24.433,76.451,24.529,77.231,24.721,77.985z"/>
		</g>
		<g>
			<path fill="#E58890" d="M33.79,3.199h-0.152c-4.158,0-7.53,3.866-7.53,8.634v4.776c0,3.291,1.608,6.152,3.972,7.609v7.042
				c0,1.963,1.39,3.556,3.102,3.556c1.714,0,3.102-1.593,3.102-3.556v-6.513c2.934-1.18,5.037-4.374,5.037-8.139v-4.776
				C41.319,7.065,37.95,3.199,33.79,3.199"/>
			<path fill="#5B0D0D" d="M33.181,35.566c-2.124,0-3.852-1.932-3.852-4.306v-6.637c-2.46-1.699-3.972-4.729-3.972-8.015v-4.776
				c0-5.174,3.715-9.384,8.28-9.384h0.152c4.565,0,8.279,4.21,8.279,9.384v4.776c0,3.769-2.004,7.166-5.037,8.627v6.024
				C37.032,33.635,35.305,35.566,33.181,35.566z M33.638,3.949c-3.738,0-6.78,3.537-6.78,7.884v4.776
				c0,2.925,1.386,5.596,3.615,6.971l0.356,0.22v7.461c0,1.547,1.055,2.806,2.352,2.806s2.352-1.259,2.352-2.806v-7.02l0.47-0.189
				c2.732-1.098,4.567-4.089,4.567-7.442v-4.776c0-4.347-3.041-7.884-6.779-7.884H33.638z"/>
		</g>
		<g>
			<path fill="#AC1E23" d="M32.825,10.825c0.293,3.14,1.096,8.332,2.118,11.967c-3.575,1.575-6.515,1.232-11.435,1.364
				c-0.682-8.088,0.143-16.39,2.599-17.748c0-9.173,17.147-6.529,16.824,3.171C42.848,12.114,32.825,10.825,32.825,10.825
				L32.825,10.825z"/>
			<path fill="#5B0D0D" d="M22.821,24.925l-0.06-0.706c-0.624-7.401-0.052-16.029,2.606-18.21C25.56,2.345,28.405,0,32.728,0
				c3.201,0,6.479,1.334,8.555,3.479c1.646,1.702,2.476,3.819,2.399,6.125c-0.068,2.061-3.326,2.299-5.771,2.299
				c-1.639,0-3.263-0.132-4.244-0.23c0.358,3.249,1.114,7.771,1.999,10.916l0.177,0.627l-0.596,0.263
				c-3.027,1.333-5.568,1.356-9.086,1.388c-0.816,0.007-1.688,0.015-2.631,0.04L22.821,24.925z M32.728,1.5
				c-2.838,0-5.87,1.29-5.87,4.908v0.442l-0.387,0.214c-1.869,1.033-2.859,8.276-2.27,16.326c0.685-0.014,1.33-0.02,1.945-0.024
				c3.096-0.028,5.395-0.048,7.9-1.015c-0.918-3.508-1.676-8.32-1.969-11.457l-0.087-0.933l0.93,0.119
				c0.025,0.004,2.532,0.322,4.989,0.322c3.464,0,4.265-0.629,4.271-0.849c0.063-1.89-0.62-3.63-1.978-5.032
				C38.401,2.658,35.536,1.5,32.728,1.5z"/>
		</g>
		<g>
			<path fill="#AC1E23" d="M32.435,28.111c-5.13,0-7.708,7.084-7.708,12.967l0.79,25.907l12.621,1.737l2.943-24.44
				c0,0,3.137-1.074,3.137-5.453C44.218,36.197,37.685,29.87,32.435,28.111"/>
			<path fill="#5B0D0D" d="M38.791,69.569l-14.005-1.928l-0.81-26.541c0-6.672,2.964-13.739,8.458-13.739l0.238,0.039
				c5.285,1.771,12.295,8.286,12.295,11.429c0,3.867-2.214,5.45-3.192,5.961L38.791,69.569z M26.247,66.329l11.237,1.547
				l2.908-24.15l0.445-0.153c0.103-0.036,2.63-0.99,2.63-4.743c0-2.097-5.992-8.176-11.153-9.966
				c-4.715,0.117-6.838,7.185-6.838,12.215L26.247,66.329z"/>
		</g>
		<g>
			<path fill="#D8414C" d="M32.435,28.111c-5.13,0-7.708,7.084-7.708,12.967l-6.987,60.072h20.19l0.172-68.011
				C38.102,33.14,37.565,28.111,32.435,28.111"/>
			<path fill="#5B0D0D" d="M38.678,101.9H16.896l7.085-60.909c-0.005-6.562,2.959-13.63,8.453-13.63
				c4.592,0,6.202,3.728,6.413,5.699L38.678,101.9z M18.581,100.4h18.601l0.17-67.263c-0.016-0.094-0.54-4.276-4.917-4.276
				c-4.799,0-6.958,7.144-6.958,12.217L18.581,100.4z"/>
		</g>
		<g>
			<polygon fill="#D8414C" points="39.026,39.389 28.684,28.332 30.263,26.053 37.674,30.244 			"/>
			<path fill="#5B0D0D" d="M40.12,41.655L27.723,28.402l2.313-3.34l8.326,4.709L40.12,41.655z M29.645,28.262l8.288,8.86
				l-0.947-6.405l-6.496-3.674L29.645,28.262z"/>
		</g>
		<g>
			<g>
				<rect x="0.75" y="71.863" fill="#AC1E23" width="34.516" height="23.953"/>
				<path fill="#5B0D0D" d="M36.016,96.566H0V71.113h36.016V96.566z M1.5,95.066h33.016V72.613H1.5V95.066z"/>
			</g>
			<g>
				<polygon fill="#AC1E23" points="11.188,63.573 11.188,71.863 14.193,71.863 14.193,66.771 21.821,66.771 21.821,71.863 
					24.825,71.863 24.825,63.573 				"/>
				<path fill="#5B0D0D" d="M25.575,72.613h-4.504v-5.093h-6.128v5.093h-4.505v-9.79h15.137V72.613z M22.571,71.113h1.504v-6.79
					H11.938v6.79h1.505v-5.093h9.128V71.113z"/>
			</g>
		</g>
		<g>
			<g>
				<path fill="#E58890" d="M21.687,65.607c-0.519,2.546-2.656,4.105-4.777,3.484c-2.121-0.62-3.421-3.187-2.902-5.733
					c0.516-2.545,2.654-4.104,4.775-3.483C20.902,60.495,22.203,63.062,21.687,65.607"/>
				<path fill="#5B0D0D" d="M17.85,69.979c-0.387,0-0.773-0.057-1.151-0.167c-2.482-0.726-4.02-3.688-3.427-6.603
					c0.504-2.484,2.383-4.221,4.57-4.221c0.387,0,0.773,0.057,1.151,0.167c2.481,0.726,4.02,3.688,3.429,6.602
					C21.915,68.242,20.035,69.979,17.85,69.979z M17.842,60.488c-1.465,0-2.74,1.241-3.1,3.02c-0.442,2.17,0.625,4.352,2.378,4.864
					c1.683,0.492,3.41-0.839,3.831-2.914c0.44-2.169-0.627-4.351-2.38-4.863C18.331,60.524,18.086,60.488,17.842,60.488z"/>
			</g>
			<g>
				<g>
					<path fill="#D8414C" d="M26.989,33.14l-8.388,9.777l0.002,0.002c-0.394,0.548-0.69,1.212-0.843,1.963l-3.754,18.477l7.68,2.249
						l3.53-17.373l7.264-10.158L26.989,33.14z"/>
				</g>
				<g>
					<path fill="#5B0D0D" d="M31.614,38.127l-7.054,9.863l-3.412,16.789l-6.348-1.857l3.642-17.923
						c0.129-0.637,0.386-1.234,0.739-1.728l7.808-10.132l-0.101-2.075l-8.853,11.482l-0.411,0.539l0.054,0.032
						c-0.277,0.506-0.481,1.064-0.6,1.646l-3.867,19.033l9.011,2.638l3.649-17.957l7.474-10.45L31.614,38.127z"/>
				</g>
			</g>
		</g>
		<g>
			<polygon fill="#FFFFFF" points="25.364,80.803 21.044,80.803 21.044,76.483 14.97,76.483 14.97,80.803 10.65,80.803 
				10.65,86.878 14.97,86.878 14.97,91.197 21.044,91.197 21.044,86.878 25.364,86.878 			"/>
		</g>
	</g>
	<g>
		<path fill="#E58890" d="M35.35,13.116v0.613h-5.305v1.004h5.305v1.618c2.756,2.02,5.97,0,5.97,0v-3.235H35.35z"/>
		<path fill="#5B0D0D" d="M38.122,17.999L38.122,17.999c-1.189,0-2.271-0.351-3.216-1.043L34.6,16.731v-1.248h-5.305v-2.504H34.6
			v-0.613h7.47v4.399l-0.351,0.221C41.652,17.028,40.085,17.999,38.122,17.999z M36.1,15.95c0.606,0.364,1.285,0.549,2.022,0.549
			c1.038,0,1.965-0.365,2.447-0.597v-2.036H36.1V15.95z"/>
	</g>
</g>
</svg>
