<?xml version="1.0" encoding="utf-8"?>
<!-- Generator: Adobe Illustrator 15.0.0, SVG Export Plug-In . SVG Version: 6.00 Build 0)  -->
<!DOCTYPE svg PUBLIC "-//W3C//DTD SVG 1.1//EN" "http://www.w3.org/Graphics/SVG/1.1/DTD/svg11.dtd">
<svg version="1.1" id="Layer_1" xmlns="http://www.w3.org/2000/svg" xmlns:xlink="http://www.w3.org/1999/xlink" x="0px" y="0px"
	 width="57.015px" height="130.336px" viewBox="0 0 57.015 130.336" enable-background="new 0 0 57.015 130.336"
	 xml:space="preserve">
<g>
	<g>
		<path fill="#E58890" d="M54.64,57.936c1.774,1.484,2.161,4.255,0.869,6.19c-1.295,1.934-3.781,2.297-5.555,0.812
			c-1.774-1.486-2.163-4.257-0.869-6.19C50.379,56.815,52.867,56.451,54.64,57.936"/>
		<path fill="#5B0D0D" d="M52.392,66.602c-1.059,0-2.068-0.376-2.919-1.088c-2.056-1.722-2.509-4.944-1.011-7.183
			c0.876-1.309,2.239-2.059,3.741-2.059c1.059,0,2.068,0.376,2.918,1.088c2.054,1.719,2.508,4.94,1.012,7.182
			C55.256,65.852,53.893,66.602,52.392,66.602z M52.203,57.772c-0.993,0-1.902,0.508-2.495,1.393
			c-1.085,1.622-0.759,3.953,0.728,5.198c0.577,0.483,1.254,0.738,1.956,0.738c0.992,0,1.901-0.508,2.494-1.393
			c1.084-1.624,0.758-3.956-0.728-5.198C53.582,58.027,52.905,57.772,52.203,57.772z"/>
	</g>
	<g>
		<polygon fill="#D8414C" points="41.767,47.159 37.081,54.159 49.954,64.938 54.64,57.936 		"/>
		<path fill="#5B0D0D" d="M50.113,66.049l-14.03-11.747l5.524-8.254l14.03,11.745L50.113,66.049z M38.079,54.017l11.716,9.81
			l3.847-5.748l-11.716-9.808L38.079,54.017z"/>
	</g>
	<g>
		<path fill="#AC1E23" d="M34.684,75.838l-7.292-2.96l-9.973,49.648c-0.912,2.522,0.12,5.368,2.305,6.358
			c2.185,0.991,4.694-0.247,5.604-2.769l16.646-47.32L34.684,75.838z"/>
		<path fill="#5B0D0D" d="M21.285,129.977L21.285,129.977c-0.644,0-1.273-0.138-1.871-0.409c-2.514-1.139-3.726-4.378-2.72-7.242
			l10.141-50.482l16.084,6.527l-0.238,0.675l-16.646,47.32C25.243,128.562,23.379,129.977,21.285,129.977z M27.948,73.913
			l-9.824,48.868c-0.78,2.158,0.076,4.59,1.909,5.421c0.402,0.182,0.823,0.274,1.252,0.274c1.454,0,2.764-1.026,3.338-2.615
			l16.405-46.64L27.948,73.913z"/>
	</g>
	<g>
		<path fill="#AC1E23" d="M49.487,123.106l-6.369-48.439v-7.049H27.48v7.903c0,0.886,0.13,1.735,0.364,2.53v0.003
			c0.123,0.417,0.273,0.817,0.453,1.199l13.077,46.994c0.756,2.568,3.187,3.946,5.426,3.077
			C49.041,128.459,50.243,125.673,49.487,123.106"/>
		<path fill="#5B0D0D" d="M45.429,130.336L45.429,130.336c-2.173-0.001-4.091-1.558-4.773-3.876L27.592,79.515
			c-0.181-0.394-0.338-0.812-0.467-1.248l-0.03-0.108c-0.242-0.856-0.364-1.743-0.364-2.637v-8.653h17.138v7.799l6.355,48.285
			c0.827,2.914-0.578,6.077-3.152,7.072C46.54,130.23,45.987,130.336,45.429,130.336z M28.595,77.944
			c0.107,0.347,0.235,0.68,0.382,0.99l0.044,0.118l13.077,46.994c0.489,1.664,1.829,2.789,3.331,2.789l0,0
			c0.372,0,0.742-0.071,1.101-0.21c1.883-0.728,2.886-3.108,2.238-5.308l-0.023-0.114l-6.369-48.439l-0.006-6.396H28.23v7.153
			c0,0.787,0.112,1.567,0.334,2.318L28.595,77.944z"/>
	</g>
	<g>
		<path fill="#D8414C" d="M35.711,24.687h-0.188c-5.13,0-9.289,4.767-9.289,10.65l-0.624,33.818l11.986,5.634l6.62-5.946
			l0.785-33.506C45.001,29.453,40.841,24.687,35.711,24.687"/>
		<path fill="#5B0D0D" d="M37.727,75.68l-12.876-6.053l0.633-34.304c0-6.272,4.504-11.387,10.039-11.387h0.188
			c5.536,0,10.04,5.114,10.04,11.4l-0.793,33.848L37.727,75.68z M26.368,68.684l11.097,5.215l6.009-5.397l0.777-33.182
			c0-5.441-3.831-9.883-8.54-9.883h-0.188c-4.708,0-8.539,4.441-8.539,9.9L26.368,68.684z"/>
	</g>
	<g>
		<path fill="#E58890" d="M35.692,26.044h-0.151c-4.158,0-7.53-3.866-7.53-8.631v-4.778c0-4.767,3.372-8.632,7.53-8.632h0.151
			c4.159,0,7.53,3.865,7.53,8.632v4.778C43.223,22.178,39.852,26.044,35.692,26.044"/>
		<path fill="#5B0D0D" d="M35.692,26.794h-0.151c-4.565,0-8.28-4.208-8.28-9.381v-4.778c0-5.173,3.715-9.382,8.28-9.382h0.151
			c4.565,0,8.28,4.209,8.28,9.382v4.778C43.973,22.586,40.258,26.794,35.692,26.794z M35.541,4.753c-3.738,0-6.78,3.536-6.78,7.882
			v4.778c0,4.346,3.042,7.881,6.78,7.881h0.151c3.738,0,6.78-3.535,6.78-7.881v-4.778c0-4.346-3.042-7.882-6.78-7.882H35.541z"/>
	</g>
	<g>
		<path fill="#AC1E23" d="M36.389,29.976c0,0-3.649-3.713-3.747-4.188s1.241-0.502,1.241-0.502s14.068,0.252,10.177,13.602
			c-1.358-6.767-4.546-7.475-4.546-7.475l0.062-2.812L36.389,29.976z"/>
		<path fill="#5B0D0D" d="M43.925,42.028l-0.601-2.993c-1.225-6.099-3.96-6.886-3.987-6.894l-0.571-0.15l-0.002-0.595l0.037-1.645
			l-2.587,1.116l-0.36-0.367c-3.805-3.87-3.9-4.337-3.946-4.562c-0.06-0.289,0.01-0.576,0.194-0.808
			c0.376-0.47,1.168-0.583,1.766-0.596c0.302,0.005,6.738,0.169,9.923,4.495c1.865,2.533,2.198,5.92,0.989,10.066L43.925,42.028z
			 M40.275,30.915c0.862,0.437,2.475,1.634,3.66,4.767c0.218-2.308-0.232-4.235-1.35-5.755c-0.619-0.845-1.403-1.506-2.244-2.023
			L40.275,30.915z M33.741,26.043c0.598,0.704,1.736,1.923,2.823,3.04l3.333-1.438c-2.783-1.521-5.985-1.608-6.029-1.609
			C33.829,26.037,33.785,26.039,33.741,26.043z"/>
	</g>
	<g>
		<path fill="#AC1E23" d="M34.729,11.627c0,0,5.578-0.228,7.604-1.246c2.027-1.019,3.459-2.264,0.891-8.492
			c-2.668,5.889-15.213-3.848-15.213,5.323c-1.776,0.905-1.992,9.087,0,12.568C29.69,19.894,34.926,20.735,34.729,11.627
			L34.729,11.627z"/>
		<path fill="#5B0D0D" d="M29.307,20.601C29.306,20.601,29.306,20.601,29.307,20.601c-0.422,0-0.802-0.029-1.109-0.054l-0.638-0.045
			l-0.2-0.35c-1.656-2.895-1.903-8.622-1.01-11.617c0.235-0.787,0.537-1.351,0.918-1.706c0.115-3.049,1.63-4.532,4.622-4.532
			c1.19,0,2.525,0.226,3.816,0.442c1.261,0.212,2.564,0.432,3.685,0.432c1.68,0,2.651-0.491,3.149-1.592L43.256,0l0.661,1.603
			c2.521,6.112,1.451,8.093-1.247,9.448c-1.711,0.86-5.572,1.186-7.188,1.286c-0.032,3.083-0.724,5.335-2.061,6.701
			C32.393,20.09,31.047,20.601,29.307,20.601z M28.481,19.064c0.241,0.019,0.521,0.036,0.824,0.036h0.001
			c1.315,0,2.311-0.363,3.043-1.111c1.146-1.172,1.695-3.308,1.629-6.346l-0.016-0.736l0.735-0.029
			c1.507-0.062,5.756-0.392,7.298-1.167c1.433-0.72,2.792-1.402,1.036-6.246c-0.837,0.81-2.041,1.206-3.642,1.206
			c-1.245,0-2.612-0.229-3.934-0.452c-1.286-0.217-2.502-0.422-3.567-0.422c-1.878,0-3.129,0.581-3.129,3.415v0.46L28.352,7.88
			c-0.012,0.006-0.287,0.155-0.564,1.084C27.035,11.485,27.229,16.473,28.481,19.064z"/>
	</g>
	<g>
		<g>
			<rect x="0.75" y="76.436" fill="#D8414C" width="34.516" height="23.953"/>
			<path fill="#5B0D0D" d="M36.016,101.139H0V75.686h36.016V101.139z M1.5,99.639h33.016V77.186H1.5V99.639z"/>
		</g>
		<g>
			<polygon fill="#D8414C" points="11.188,68.146 11.188,76.436 14.193,76.436 14.193,71.342 21.821,71.342 21.821,76.436 
				24.826,76.436 24.826,68.146 			"/>
			<path fill="#5B0D0D" d="M25.576,77.186h-4.505v-5.094h-6.128v5.094h-4.505v-9.79h15.138V77.186z M22.571,75.686h1.505v-6.79
				H11.938v6.79h1.505v-5.094h9.128V75.686z"/>
		</g>
	</g>
	<g>
		<g>
			<path fill="#E58890" d="M21.849,68.257c-0.519,2.763-2.656,4.456-4.777,3.782s-3.421-3.459-2.902-6.221
				c0.516-2.762,2.654-4.455,4.775-3.781C21.064,62.711,22.364,65.496,21.849,68.257"/>
			<path fill="#5B0D0D" d="M18.011,72.937c-0.392,0-0.784-0.062-1.167-0.183c-2.467-0.784-3.997-3.957-3.412-7.074
				c0.499-2.673,2.38-4.54,4.573-4.54c0.392,0,0.784,0.062,1.167,0.183c2.464,0.783,3.996,3.956,3.414,7.072
				C22.084,71.069,20.203,72.937,18.011,72.937z M18.005,62.64c-1.46,0-2.734,1.363-3.099,3.316
				c-0.442,2.357,0.652,4.815,2.393,5.368c1.677,0.539,3.387-0.934,3.812-3.206c0.44-2.356-0.656-4.813-2.395-5.366
				C18.482,62.677,18.242,62.64,18.005,62.64z"/>
		</g>
		<g>
			<g>
				<path fill="#D8414C" d="M27.151,33.028l-8.389,10.609l0.003,0.002c-0.394,0.594-0.69,1.315-0.843,2.13l-3.754,20.049l7.68,2.438
					l3.529-18.85l7.264-11.021L27.151,33.028z"/>
			</g>
			<g>
				<path fill="#5B0D0D" d="M31.776,38.439l-7.055,10.703L21.31,67.358l-6.347-2.015l3.642-19.447
					c0.129-0.69,0.385-1.339,0.739-1.874l7.808-10.994l-0.101-2.252l-8.853,12.459l-0.411,0.586l0.054,0.035
					c-0.277,0.548-0.481,1.154-0.6,1.785l-3.867,20.651l9.011,2.862l3.649-19.483l7.474-11.341L31.776,38.439z"/>
			</g>
		</g>
	</g>
	<g>
		<polygon fill="#AC1E23" points="14.757,62.673 22.549,64.214 21.849,68.257 14.169,65.818 		"/>
		<path fill="#5B0D0D" d="M22.441,69.231l-9.132-2.899l0.85-4.542l9.254,1.83L22.441,69.231z M15.028,65.305l6.228,1.978
			l0.429-2.475l-6.33-1.252L15.028,65.305z"/>
	</g>
	<g>
		<polygon fill="#AC1E23" points="47.53,62.673 51.86,55.608 54.64,57.936 49.954,64.938 		"/>
		<path fill="#5B0D0D" d="M50.087,66.089l-3.516-3.286l5.104-8.327l3.963,3.317L50.087,66.089z M48.489,62.543l1.332,1.245
			l3.82-5.71l-1.596-1.337L48.489,62.543z"/>
	</g>
	<g>
		<polygon fill="#E58890" points="38.253,13.406 38.253,14.02 31.948,14.02 31.948,15.023 38.253,15.023 38.253,16.642 
			43.223,16.642 43.223,13.406 		"/>
		<path fill="#5B0D0D" d="M43.973,17.392h-6.47v-1.618h-6.305V13.27h6.305v-0.613h6.47V17.392z M39.003,15.892h3.47v-1.735h-3.47
			V15.892z"/>
	</g>
</g>
</svg>
